<?xml version="1.0" encoding="UTF-8"?>
<!-- Generator: Adobe Illustrator 25.1.0, SVG Export Plug-In . SVG Version: 6.00 Build 0)  -->
<svg xmlns="http://www.w3.org/2000/svg" xmlns:xlink="http://www.w3.org/1999/xlink" version="1.1" id="Capa_1" x="0px" y="0px" viewBox="0 0 300 300" style="enable-background:new 0 0 300 300;" xml:space="preserve">
<style type="text/css">
	.st0{fill:#FFFFFF;}
</style>
<g>
	<g>
		<g>
			<path class="st0" d="M175.5,81.3c0-0.1,0-0.2-0.1-0.3c-0.1-0.5-0.3-1.1-0.4-1.6c-0.1-0.6-0.3-1.2-0.5-1.7c0-0.1-0.1-0.2-0.1-0.4     C160.3,26.9,103.4-1.1,52.6,24c-28.4,14-46.5,43-46.7,74.7c-0.1,7.3,0.7,14.4,2.3,21.1c0,0.1,0,0.2,0.1,0.3c0,0.1,0,0.2,0.1,0.3     c0.1,0.5,0.3,1.1,0.4,1.6c0.1,0.6,0.3,1.2,0.5,1.7c0,0.1,0.1,0.2,0.1,0.4c14.2,50.4,71.1,78.4,121.9,53.3     c28.4-14,46.5-43,46.7-74.7c0.1-7.3-0.7-14.4-2.3-21.1C175.6,81.4,175.5,81.4,175.5,81.3z M103.6,149.2     c-8.8,2.1-17.5,1.8-25.6-0.6c-0.6-0.3-1.2-0.6-1.8-0.8c-16.3-5.4-29.4-19.2-33.1-37.3c-0.1-0.6-0.2-1.3-0.3-1.9     c0-0.3-0.1-0.5-0.1-0.8c0-0.1,0-0.1,0-0.2c-1.9-13.4,1.8-26.6,9.5-36.8c0.3-0.5,0.7-0.9,1-1.4c6.7-8.3,16-14.6,27-17.2     c8.8-2.1,17.5-1.8,25.6,0.6c0.6,0.3,1.2,0.6,1.8,0.8c16.3,5.4,29.4,19.2,33.1,37.3c0.1,0.6,0.2,1.3,0.3,1.9     c0,0.3,0.1,0.5,0.1,0.8c0,0.1,0,0.1,0,0.2c1.9,13.4-1.8,26.6-9.5,36.8c-0.3,0.5-0.7,0.9-1,1.4C124,140.2,114.6,146.5,103.6,149.2     z"></path>
			<path class="st0" d="M91.9,50.7c32.4,0,65,16.9,86,51.9c0.1-7.3-0.7-14.4-2.3-21.1c0-0.1,0-0.2-0.1-0.3c0-0.1,0-0.2-0.1-0.3     c-0.1-0.5-0.3-1.1-0.4-1.6c-0.1-0.6-0.3-1.2-0.5-1.7c0-0.1-0.1-0.2-0.1-0.4C160.3,26.8,103.4-1.2,52.6,24L91.9,50.7z"></path>
			<path class="st0" d="M248,14.6c-15.4,0.1-29.8,6.5-40.5,18c-10.5,11.1-16.5,25.9-16.7,41.6c0,0.4-0.2,30.2-0.2,30.6l0,0V187h36.3     v-82.2l0,0c0-1.3,0.2-28.2,0.2-30.1c0.2-12.9,9.8-23.5,21.2-23.5c0.5,0,4.8,0,10.7,0c20,0,36.2-16.6,36.2-36.7v0     C294.2,14.6,248.2,14.6,248,14.6z"></path>
			<path class="st0" d="M248,14.6c-15.4,0.1-29.8,6.5-40.5,18c-10.5,11.1-16.5,25.9-16.7,41.6c0,0.4-0.2,30.2-0.2,30.6l0,0     c0,0,0,1.8,0,0c0-44.7,46.3-53.5,57.7-53.5c0.5,0,4.8,0,10.7,0c20,0,36.2-16.6,36.2-36.7v0C294.2,14.6,248.2,14.6,248,14.6z"></path>
			<path class="st0" d="M53.1,69.4c6.7-8.3,16-14.6,27-17.3c2.9-0.7,5.7-0.9,8.6-1.3h170.8c20,0,36.3-16.2,36.3-36.3v0H91.3l0,0     c-12.8,0.1-25.9,3.1-38.7,9.4C24.1,38.1,6,67.3,5.9,99.1c0,7.2,0.8,14.2,2.3,20.7c0,0.1,0,0.2,0.1,0.3c0,0.1,0,0.2,0.1,0.3     c0.1,0.5,0.3,1.1,0.4,1.6c0.1,0.6,0.3,1.2,0.5,1.7c0,0.1,0.1,0.2,0.1,0.4c9.1,32.3,35.7,55.4,67.1,61.2     c21.9,4,40.2-16.8,33.7-38.1l0,0c-2.1,0.8-4.2,1.5-6.4,2c-8.8,2.1-17.5,1.8-25.6-0.6c-0.6-0.3-1.2-0.6-1.8-0.8     c-16.3-5.4-29.4-19.2-33.1-37.3c-0.1-0.6-0.2-1.3-0.3-1.9c0-0.3-0.1-0.5-0.1-0.8c0-0.1,0-0.1,0-0.2c-1.9-13.4,1.8-26.6,9.5-36.8     C52.5,70.4,52.8,69.9,53.1,69.4z"></path>
		</g>
		<path class="st0" d="M141.1,108.2c-1,6.1-3.1,11.9-6.1,17.1c-1,1.8-2.2,3.6-3.4,5.2c-0.3,0.5-0.7,0.9-1,1.4    c-6.7,8.3-16,14.6-27,17.2c-8.8,2.1-17.5,1.8-25.6-0.6c-0.6-0.3-1.2-0.6-1.8-0.8c-13.8-4.6-25.3-15.2-30.7-29.3    c-2.2-5.7-3.5-11.9-3.5-18.3c0-5.7,0.9-11.1,2.7-16.2H7.3C6.4,88.7,6,93.7,5.9,98.7c-0.1,7.3,0.7,14.4,2.3,21.1    c0,0.1,0,0.2,0.1,0.3c0,0.1,0,0.2,0.1,0.3c0.1,0.5,0.3,1.1,0.4,1.6c0.1,0.6,0.3,1.2,0.5,1.7c0,0.1,0.1,0.2,0.1,0.4    c14.2,50.4,71.1,78.4,121.9,53.3c19.1-9.5,33.6-25.7,41-45L141.1,108.2z"></path>
	</g>
	<g>
		<path class="st0" d="M52.3,218h-3.8l-28.2,59.9h4.9l7.9-16.8h34.5l7.8,16.8h5.1l-28-59.4L52.3,218z M65.5,256.7H35.2l15.1-32.3    L65.5,256.7z"></path>
		<path class="st0" d="M144.4,218.4h-21.5v59.5h4.7v-22.2h16.2c14.4,0,23.4-7.2,23.4-18.8v-0.2C167.2,225.4,158.4,218.4,144.4,218.4    z M143.8,251.2h-16.3v-28.5h16.6c11.5,0,18.3,5.3,18.3,14.1v0.2C162.5,245.9,155.5,251.2,143.8,251.2z"></path>
		<path class="st0" d="M232.4,218.4h-21.5v59.5h4.7v-22.2h16.2c14.4,0,23.4-7.2,23.4-18.8v-0.2C255.1,225.4,246.4,218.4,232.4,218.4    z M231.8,251.2h-16.3v-28.5h16.6c11.5,0,18.3,5.3,18.3,14.1v0.2C250.5,245.9,243.5,251.2,231.8,251.2z"></path>
	</g>
</g>
</svg>
